<svg width="62" height="62" viewBox="0 0 62 62" fill="none" xmlns="http://www.w3.org/2000/svg">
<path d="M33.5833 18.0833C33.5833 19.5101 32.4267 20.6667 31 20.6667C29.5732 20.6667 28.4166 19.5101 28.4166 18.0833C28.4166 16.6566 29.5732 15.5 31 15.5C32.4267 15.5 33.5833 16.6566 33.5833 18.0833Z" stroke="black" stroke-width="1.25" stroke-linecap="round"/>
<path d="M33.5833 31.0001C33.5833 32.4269 32.4267 33.5834 31 33.5834C29.5732 33.5834 28.4166 32.4269 28.4166 31.0001C28.4166 29.5733 29.5732 28.4167 31 28.4167C32.4267 28.4167 33.5833 29.5733 33.5833 31.0001Z" stroke="black" stroke-width="1.25" stroke-linecap="round"/>
<path d="M33.5833 43.9166C33.5833 45.3434 32.4267 46.4999 31 46.4999C29.5732 46.4999 28.4166 45.3434 28.4166 43.9166C28.4166 42.4898 29.5732 41.3333 31 41.3333C32.4267 41.3333 33.5833 42.4898 33.5833 43.9166Z" stroke="black" stroke-width="1.25" stroke-linecap="round"/>
</svg>
